<svg xmlns="http://www.w3.org/2000/svg" xmlns:xlink="http://www.w3.org/1999/xlink" viewBox="0 0 1200 1000"><defs><linearGradient id="a" x1="1354.038" x2="1354.038" y1="366.144" y2="596.624" gradientTransform="rotate(6.136 699.003 -7038.292)" gradientUnits="userSpaceOnUse"><stop offset="0" stop-color="#2d32e2"/><stop offset=".156" stop-color="#2c31dc"/><stop offset=".355" stop-color="#282ecc"/><stop offset=".579" stop-color="#2228b2"/><stop offset=".819" stop-color="#1a218e"/><stop offset="1" stop-color="#131a6d"/></linearGradient><linearGradient id="e" x1="1357.021" x2="1357.021" y1="375.946" y2="414.409" xlink:href="#a"/><linearGradient id="f" x1="1378.631" x2="1378.631" y1="378.593" y2="410.086" xlink:href="#a"/><linearGradient id="c" x1="556.925" x2="556.925" y1="537.012" y2="770.989" gradientUnits="userSpaceOnUse"><stop offset="0" stop-color="#fb4143"/><stop offset="1" stop-color="#cd0000"/></linearGradient><linearGradient id="b" x1="602.009" x2="711.272" y1="540.286" y2="540.286" gradientUnits="userSpaceOnUse"><stop offset="0" stop-color="#47aa50"/><stop offset="1" stop-color="#257219"/></linearGradient><linearGradient id="g" x1="976.302" x2="976.302" y1="487.131" y2="650.582" xlink:href="#b"/><linearGradient id="h" x1="3808.863" x2="3871.745" y1="588.097" y2="357.808" gradientTransform="translate(-3612.149)" xlink:href="#c"/><linearGradient id="d" x1="3792.139" x2="3880.563" y1="571.335" y2="571.335" gradientTransform="translate(-3612.149)" gradientUnits="userSpaceOnUse"><stop offset="0" stop-color="#ffdc1d"/><stop offset="1" stop-color="#f0a41d"/></linearGradient><linearGradient id="i" x1="-4591.203" x2="-4576.914" y1="1025.707" y2="1025.707" gradientTransform="scale(-1 1) rotate(7.522 1797.739 33773.478)" xlink:href="#c"/><linearGradient id="j" x1="-4252.947" x2="-4216.632" y1="396.165" y2="396.165" gradientTransform="matrix(-1.0177 .0938 .1807 1.0616 -4158.842 446.257)" xlink:href="#c"/><linearGradient id="k" x1="-3699.385" x2="-3620.442" y1="-6010.023" y2="-6010.023" gradientTransform="rotate(-84.007 1968.63 -4918.515)" xlink:href="#d"/><linearGradient id="l" x1="-3026.035" x2="-2938.422" y1="-4346.451" y2="-4346.451" gradientTransform="matrix(.411 -.9278 .9316 .4528 5508.66 -208.166)" xlink:href="#d"/></defs><path d="M61.033 741.603h1077.934v1H61.033z"/><path fill="#fff" d="M315.604 223.295h193.638v480.712H315.604z"/><path fill="#e3f4ff" d="M192.251 223.295h122.932v480.712H192.251z"/><path fill="#fff" d="M208.703 306.507h90.028v35.224h-90.028zM208.703 376.954h90.028v35.224h-90.028zM208.703 517.848h90.028v35.224h-90.028zM208.703 588.295h90.028v35.224h-90.028zM208.703 447.401h90.028v35.224h-90.028z"/><path d="M508.742 633.513h1v70.494h-1zM315.757 284.384h1v393.649h-1zM509.742 625.41h-1V342.23h-26.066v-36.223h26.066V241.95h1v65.057h-26.066v34.223h26.066v284.18z"/><path d="m497.006 336.452-.707-.707 11.552-11.552-11.552-11.552.707-.707 12.259 12.259-12.259 12.259zM545.136 306.007h388.97v1h-388.97zM545.136 341.23h388.97v1h-388.97z"/><path fill="#639bff" d="M193.055 182.03h814.693v44.575H193.055z"/><path d="M201.024 226.105H999.78v1H201.024z"/><circle cx="222.806" cy="204.317" r="8.571" fill="#fff" transform="rotate(-80.783 222.806 204.317)"/><circle cx="259.939" cy="204.317" r="8.571" fill="#fff" transform="rotate(-45 259.94 204.317)"/><circle cx="297.073" cy="204.317" r="8.571" fill="#fff" transform="rotate(-76.718 297.073 204.317)"/><rect width="275.936" height="23.875" x="719.821" y="192.38" fill="#fff" rx="2.867"/><path d="M737.412 206.408a4.603 4.603 0 1 1 3.256-1.346 4.59 4.59 0 0 1-3.256 1.346Zm0-8.207a3.604 3.604 0 1 0 2.55 1.054 3.595 3.595 0 0 0-2.55-1.054Z"/><path d="M727.334 208.147h6.471v1h-6.471z" transform="rotate(-45.004 730.57 208.647)"/><path d="M1008.248 703.103h-1V182.53H193.556v520.573h-1V181.53h815.692v521.573z"/><path fill="#f4c0b8" d="M559.328 571.266c11.302-6.074 22.12 9.817 29.83 32.378 8.258 24.162 18.345 84.775 12.17 124.813-7.22 46.819-21.688 45.603-23.632 148.714a151.743 151.743 0 0 0 1.267 19.384l-11.802-7.605c.82-3.526.39-12.596-.46-16.115-3.41-14.121-12.065-56.687-11.109-121.692.551-37.476-15.363-79.454-17.546-106.77-1.544-19.318 7.846-65.887 21.282-73.107Z"/><path fill="#111107" d="M547.64 765.692s26.415-9.383 38.503-2.7c0 0-16.089 8.78-26.163 11.67-7.68 2.201-12.34-8.97-12.34-8.97Z"/><path fill="url(#a)" d="M521.204 432.498c8.515-27.732 22.008-36.972 34.042-38.468 9.562-1.19 14.687 3.429 16.98 3.863 4.086.774 13.772-1.394 23.171 18.468 10.445 22.07 14.964 73.564 5.416 92.826l-2.89-5.696c4.587-19.914 5.92-38.069 1.92-61.129.776 25.676-.218 48.773-4 60.906-15.308 49.109-7.42 116.335-7.42 116.335s-63.063 4.332-84.054-.192c-24.691-5.321-22.186-7.63-22.186-7.63a94.936 94.936 0 0 0 4.748-36.222c-4.923-85.266 16.58-85.443 34.273-143.06Z"/><path fill="#ffd7cf" d="M671.998 531.48s7.602-.355 18.724-4.622c4.215-1.618 7.329-4.16 11.57-8.49 1.87-1.908 1.235-5.345-1.465-4.358-11.347 4.147-14.525 3.813-14.525 3.813s4.254-1.683 5.838-3.552c.619-.73.665-1.523-2.207-1.263-2.308.209-7.61.258-9.706.652-3.718.7-9.7 5-9.7 5Z"/><path fill="#111107" d="M580.787 472.167c1.184-6.474 32.349 32.506 41.848 34.932 19.676 7.569 37.922-.849 50.939 5.62 6.221 3.09 4.29 17.526 3.21 19.344-6.606 11.11-34.107 12.024-49.454 6.12-27.641-10.634-51.821-37.175-46.543-66.016Z"/><path fill="#ffd7cf" d="M562.587 603.97c8.258 24.162 17.186 72.14 6.155 125.18-12.688 61.01-22.233 128.327-25.195 150.095a29.768 29.768 0 0 0 .64 12.14l2.572 2.628-2.51 6.89-9.657-6.584a49.043 49.043 0 0 1-.474-6.45c.035-.85-.22-6.365-.298-7.212-1.477-16.135-16.38-66.575-9.744-125.437 4.528-40.16-.304-100.296-2.487-127.611-1.543-19.319 33.288-46.2 40.998-23.64Z"/><path fill="#111107" d="M533.893 888.95c1.764 5.252 12.719 9.698 9.942 1.02 1.874 4.513 12.341 11.841 10.621 14.024-1.805 2.29-6.71 1.306-10.066-.417-3.194-1.64-5.253-1.858-9.773-2.675-1.264-.228-2.386-2.05-2.3-5.171a15.239 15.239 0 0 1 1.576-6.781ZM567.425 886.867c1.764 5.252 13.125 9.423 10.348.745 1.874 4.512 13.046 10.229 11.326 12.411-1.805 2.291-6.294 2.602-9.65.88-3.194-1.64-6.518-.064-11.038-.88-1.264-.228-2.648-3.253-2.562-6.375a15.24 15.24 0 0 1 1.576-6.78Z"/><path fill="#ffd7cf" d="M532.102 470.85c20.407-11.477 49.856-10.036 58.507 11.662 3.128 7.844.038 26.913-7.64 31.004-10.483 5.587-24.407 3.744-35.804-.434-11.215-4.112-24.524-36.912-15.063-42.233Z"/><path fill="#f4c0b8" d="M582.225 436.77c-.333-1.743-2.323-2.048-4.301-.985-1.628.875-2.086 8.48.469 8.584 2.685.109 4.405-4.59 3.832-7.598Z"/><path fill="#ffd7cf" d="M570.23 473.662c1.782-8.28 3.337-21.412 1.63-24.762-2.414-4.737-16.07-6.29-16.144-.089-.055 4.526-1.421 20.447-1.453 23.84-.045 4.765 14.683 6.981 15.967 1.01Z"/><path fill="#f4c0b8" d="m555.713 449.003-.221 4.83c1.607 5.506 4.384 10.17 8.34 9.819a10.07 10.07 0 0 0 8.654-6.039l.263-6.151Z"/><path fill="#111107" d="m555.611 445.11-.618 4.639c1.607 5.505 4.391 9.208 9.979 9.452 4.339.19 6.61-2.582 8.332-6l-.656-5.632Z"/><path fill="#ffd7cf" d="M578.483 419.608c-2.805-4.21-13.295-10.131-20.486-3.041-5.916 5.832-7.511 15.339-7.053 22.551.491 7.739 4.564 17.936 13.675 18.305 9.578.387 13.664-7.394 15.147-14.505 1.7-8.155 3.266-16.482-1.283-23.31Z"/><path fill="#ff9eab" d="M566.942 435.608c-.243-1.568-4.009 5.505-1.674 7.14.86.6 3.584.445 3.627-.604.057-1.43-1.11-1.073-1.953-6.536Z"/><path fill="#f4c0b8" d="M552.547 435.797c-.62-2.645-2.232-3.41-4.64-2.097-1.624.885-.322 8.138 3.285 7.743 2.12-.231 2.054-2.665 1.355-5.646Z"/><path fill="url(#e)" d="M543.251 433.964c4.806-7.323 1.09-13.097 3.919-18.5 2.475-4.727 4.193-.823 10.348-9.329 4.39-6.066 20.69 2.005 16.222 11.898-2.767 6.126-7.558 10.705-12.55 11.706-5.554 1.114-6.376 5.147-9.773 7.86-9.194 7.342-10.691.213-8.166-3.635Z"/><path fill="url(#f)" d="M588.609 435.608c-3.551-5.802 3.016-13.332-2.026-16.763-5.377-3.66-1.858-3.835-6.05-8.626-4.165-4.762-13.323-.724-13.646 5.817-.33 6.714 2.22 10.406 6.774 12.68 5.07 2.53 3.94 6.645 7.355 9.336a15.541 15.541 0 0 0 11.72 3.049 27.085 27.085 0 0 1-4.127-5.493Z"/><path fill="url(#c)" d="M510.37 664.256c-6.72-27.167-12.714-87.43 13.658-117.211 4.243-4.792 37.581-13.398 55.437-8.648 16.611 4.42 23.25 27.877 28.512 75.004 5.428 48.603-8.33 149.94-10.67 149.94-15.346 0-35.62 9.87-56.847 7.184-25.708-3.253-23.058-5.903-22.851-12.176 1.934-58.523-1.575-71.19-7.24-94.093Z"/><path fill="#111107" d="M525.071 475.027c3.252-6.494 10.62-7.11 15.86-9.5.728 1.9 10.047 20.449 23.096 21.46 16.786 1.302 12.984-16.727 14.57-19.303 18.46 11.305 19.691 37.446 14.844 46.958-7.7 15.113-5.768 14.855-6.542 28.18-1.34 23.07-65.987 17.125-63.8-2.623 3.844-34.681-3.308-54.626 1.972-65.172Z"/><path fill="#fff" d="M567.061 490.191a.858.858 0 0 0-1.322-.348c-.365.303.11 1.504.85 1.479.478-.017.773-.54.472-1.131ZM567.033 499.789a1.295 1.295 0 0 0-1.666-.257c-.475.284.079 1.335 1.02 1.282.609-.034 1.004-.51.646-1.025ZM565.558 510.44a1.295 1.295 0 0 0-1.406.93c-.16.53.956.935 1.617.264.428-.435.4-1.054-.211-1.194Z"/><path fill="#111107" d="M569.077 446.205s-3.547 2.242-5.733-.526a4.909 4.909 0 0 0 1.736-.201c.372-.113 1.133.524 1.133.524a5.599 5.599 0 0 1 1.29-.453 4.388 4.388 0 0 1 1.574.656ZM563.41 432.341a15.798 15.798 0 0 1-2.304-.219 4.123 4.123 0 0 0-1.855.528 2.414 2.414 0 0 1 2.173-1.306c1.665-.134 2.326.695 1.985.997ZM570.039 432.749a14.012 14.012 0 0 0 2.152.343 3.72 3.72 0 0 1 1.553.957 2.284 2.284 0 0 0-1.642-1.786c-1.482-.53-2.296.111-2.063.486ZM560.827 433.878a.84.84 0 1 1 1.644.35c-.097.454-.435.549-.89.452s-.85-.348-.754-.802ZM570.663 434.868a.84.84 0 1 1 1.68.065c-.018.464-.445.622-.908.604s-.79-.206-.772-.67Z"/><path d="m560.761 430.194-.225-.975c.577-.133 14.122-3.437 12.704-17.096l.995-.104c1.51 14.547-13.324 18.14-13.474 18.175ZM556.816 424.69l-.137-.99c.381-.054 9.332-1.401 10.1-9.805l.996.091c-.84 9.202-10.857 10.69-10.959 10.704ZM499.73 498.52l-.865-.503c.159-.274 16.017-27.702 23.306-47.263 2.588-6.945 4.455-13.906 6.102-20.047 4.936-18.403 8.824-32.944 27.816-30.898l-.107.994c-18.125-1.95-21.743 11.52-26.743 30.163-1.653 6.163-3.527 13.147-6.13 20.137-7.319 19.64-23.22 47.14-23.379 47.416Z"/><path d="m524.027 461.992-.893-.45c6.655-13.208 7.812-18.832 10.118-30.036.55-2.673 1.173-5.703 1.951-9.206l.977.217c-.777 3.495-1.4 6.521-1.949 9.19-2.25 10.935-3.49 16.959-10.204 30.285ZM588.593 441.775c-1.94 0-7.284-.702-10.935-7.907a11.738 11.738 0 0 0-5.477-5.714 8.325 8.325 0 0 1-3.302-2.765l.837-.547a7.425 7.425 0 0 0 2.955 2.44 12.598 12.598 0 0 1 5.879 6.134c4.166 8.222 10.36 7.371 10.624 7.33l.157.988a5.416 5.416 0 0 1-.738.04ZM552.345 823.05l-.983-.18c1.732-9.461 2.81-16.145 4.766-28.278.562-3.49 1.2-7.439 1.947-12.048l.987.16c-.748 4.609-1.385 8.558-1.947 12.047-1.957 12.14-3.035 18.827-4.77 28.299ZM510.667 584.465l-.162-.987c.184-.03 18.439-3.255 21.594-23.015l.987.157c-3.271 20.488-22.228 23.814-22.419 23.845Z"/><path fill="#fff" d="m588.296 529.06-.984-.174a51.81 51.81 0 0 1 3.616-10.813l.649-1.456c3.825-8.554 7.438-16.633.436-33.764l.925-.378c7.164 17.527 3.466 25.796-.449 34.55l-.646 1.453a51.96 51.96 0 0 0-3.547 10.582Z"/><path d="M557.602 565.316c-15.11 0-29.018-5.575-29.258-5.673l.379-.926c.409.168 41.117 16.477 58.29-7.291l.811.586c-7.453 10.315-19.16 13.304-30.221 13.304Z"/><path fill="#111107" d="M678.522 507.17h16.881a1.668 1.668 0 0 1 1.668 1.668v9.741a1.669 1.669 0 0 1-1.668 1.669h-16.88a1.668 1.668 0 0 1-1.67-1.668v-9.742a1.668 1.668 0 0 1 1.67-1.668Z"/><path fill="#111107" d="M695.403 521.568H678.52a2.992 2.992 0 0 1-2.988-2.989v-9.741a2.992 2.992 0 0 1 2.988-2.989h16.882a2.993 2.993 0 0 1 2.988 2.989v9.741a2.993 2.993 0 0 1-2.988 2.99ZM678.52 508.49a.352.352 0 0 0-.347.348v9.741a.352.352 0 0 0 .347.348h16.882a.352.352 0 0 0 .348-.348v-9.741a.352.352 0 0 0-.348-.348Z"/><path fill="#fff" fill-rule="evenodd" d="M681.369 507.17h-64.502a11.636 11.636 0 0 1 .005 13.08h64.623l1.297-1.194v-10.362Z"/><path fill="#111107" fill-rule="evenodd" d="M613.924 519.094h66.538a1.19 1.19 0 0 0 .845-.354 1.223 1.223 0 0 0 .353-.863v-8.337a1.222 1.222 0 0 0-.353-.863 1.19 1.19 0 0 0-.845-.354h-66.538v-2.308h66.538a3.484 3.484 0 0 1 2.477 1.04 3.527 3.527 0 0 1 1.03 2.485v8.337a3.527 3.527 0 0 1-1.03 2.486 3.484 3.484 0 0 1-2.477 1.04h-66.538Z"/><path fill="#fff" fill-rule="evenodd" d="M696.606 534.653h-92.061a10.023 10.023 0 0 1 .004 11.268h92.166l1.118-1.028v-8.928Z"/><path fill="url(#b)" fill-rule="evenodd" d="M708.698 533.674a2.641 2.641 0 0 1 1.877.765 2.34 2.34 0 0 1 .697 1.65v8.393a2.34 2.34 0 0 1-.697 1.65 2.64 2.64 0 0 1-1.877.765q-53.345 0-106.689.017v-1.989h71.812a1.025 1.025 0 0 0 .73-.305 1.054 1.054 0 0 0 .303-.744v-7.182a1.055 1.055 0 0 0-.304-.743 1.022 1.022 0 0 0-.728-.306h-71.813v-1.988q53.346 0 106.689.017Z"/><path fill="#639bff" fill-rule="evenodd" d="M707.838 521.402a2.57 2.57 0 0 1 1.877.809 2.537 2.537 0 0 1 .698 1.741v7.065a2.538 2.538 0 0 1-.698 1.741 2.57 2.57 0 0 1-1.877.809h-101.82a2.57 2.57 0 0 1-1.876-.809 2.538 2.538 0 0 1-.698-1.741v-7.065a2.537 2.537 0 0 1 .698-1.741 2.57 2.57 0 0 1 1.876-.809Z"/><path fill="#ffd7cf" d="M617.72 553.556s21.004-1.732 30.823.92c3.02.815 9.592 1.54 12.51.108 2.399-1.177 3.838-4.259 1.233-5.474-11.095-5.175-14.475-5.012-14.475-5.012s4.573.108 6.76-.995c.856-.431-.23-1.387-2.976-2.268-2.206-.707-6.892-3.281-8.975-3.736-3.696-.805-16.863 2.017-16.863 2.017Z"/><path fill="#111107" d="M526.32 473.372c10.683-13.215 41.206 40.054 50.066 44.252 13.389 5.676 45.633 7.596 53.512 19.812 3.765 5.838.813 16.61-4.488 18.526-12.156 4.396-42.204-8.588-57.037-15.686-19.554-9.356-51.463-55.263-42.053-66.904Z"/><path fill="#fff" d="m618.137 555.969-.638-.77c.073-.06 7.334-6.225 9.09-18.5l.99.142c-1.814 12.677-9.131 18.87-9.442 19.128Z"/><path fill="#111107" d="M731.436 687.471h92.916a5.166 5.166 0 0 1 5.167 5.166v92.917a5.166 5.166 0 0 1-5.167 5.166h-92.916a5.166 5.166 0 0 1-5.167-5.166v-92.916a5.166 5.166 0 0 1 5.167-5.167Z"/><path fill="#111107" d="M797.828 812.294h-99.836l29.545-22.465 100.059-.254-29.768 22.719zM797.899 711.72h-99.907l29.545-22.466h100.716l-30.354 22.466z"/><path fill="#639bff" d="M701.487 710.35h92.917a5.166 5.166 0 0 1 5.166 5.166v92.917a5.166 5.166 0 0 1-5.166 5.166h-92.917a5.166 5.166 0 0 1-5.166-5.166v-92.917a5.166 5.166 0 0 1 5.166-5.166Z"/><path fill="#fff" d="m743.33 797.115-1.593-8.712a27.737 27.737 0 0 1-7.304-2.646l-7.255 5.093-7.346-7.291 4.629-6.698a27.773 27.773 0 0 1-3.728-7.772l-7.89-1.38-.038-10.35 7.194-1.315a27.7 27.7 0 0 1 3.24-8.897l-4.17-5.94 7.292-7.345 5.643 3.9a27.718 27.718 0 0 1 8.988-3.921l1.22-6.969 10.35-.038 1.272 6.959a27.728 27.728 0 0 1 8.693 3.649l6.185-4.343 7.346 7.292-4.45 6.44a27.717 27.717 0 0 1 3.17 7.963l8.27 1.447.038 10.35-8.52 1.557a27.782 27.782 0 0 1-2.983 7.133l5.238 7.46-7.292 7.347-7.473-5.165a27.8 27.8 0 0 1-6.77 2.978l-1.607 9.176Zm-8.966-12.532.273.149a26.746 26.746 0 0 0 7.628 2.757l.334.066 1.563 8.558 8.676-.033 1.57-8.972.305-.084a26.8 26.8 0 0 0 7.093-3.122l.279-.175 7.324 5.062 6.112-6.157-5.132-7.31.17-.28a26.793 26.793 0 0 0 3.118-7.45l.078-.312 8.328-1.522-.032-8.676-8.107-1.419-.07-.329a26.752 26.752 0 0 0-3.288-8.263l-.168-.277 4.341-6.283-6.157-6.112-6.053 4.25-.284-.186a26.733 26.733 0 0 0-8.971-3.767l-.325-.07-1.24-6.789-8.676.032-1.19 6.798-.325.073a26.718 26.718 0 0 0-9.254 4.04l-.283.194-5.52-3.813-6.111 6.157 4.057 5.78-.163.278a26.707 26.707 0 0 0-3.34 9.18l-.057.346-7.06 1.29.033 8.675 7.679 1.345.087.3a26.804 26.804 0 0 0 3.872 8.059l.201.285-4.548 6.583 6.158 6.111Zm13.581-5.514a17.094 17.094 0 0 1-11.462-29.776l.671.742a16.094 16.094 0 0 0 10.79 28.034h.061a16.088 16.088 0 0 0 12.183-5.647l.76.65a17.088 17.088 0 0 1-12.939 5.997Zm-.038-5.9a11.617 11.617 0 0 1-7.788-20.236l.67.742a10.616 10.616 0 0 0 7.118 18.493 8.344 8.344 0 0 1 .044 1Z"/><path fill="#ffd7cf" d="M867.547 495.783s47.92 26.216 67.037 2.218c12.12-15.217 20.697-39.506 20.131-50.856-.494-9.902-2.117-24.932-8.63-15.33-8.258 12.172-19.123 23.912-32.437 44.707-6.218 9.714-42.003 10.488-42.003 10.488ZM867.547 495.783s-11.015 1.556-18.85-3.972c-.66-.465-5.05-6.79-6.484-9.47-1.179-2.203-.206-6.286 2.052-4.829 8.89 5.736 11.891 7.262 11.891 7.262s-3.743-2.51-4.8-4.541c-.415-.795 1.936-1.815 4.502-.984 2.061.667 5.663 1.209 7.492 2.001 3.246 1.406 8.295 5.76 8.295 5.76Z"/><path fill="#f4c0b8" d="M934.341 579.98c9.125-18.193 28.5-32.544 40.781-27.37 14.6 6.15 23.644 44.226 21.404 59.91-3.167 22.175-29.42 62.156-29.86 92.653-.946 65.702-11.102 99.852-11.102 99.852l-7.704.725c-11.91-90.002-16.58-86.946-23.393-126.135-5.685-32.698.103-80.15 9.875-99.634Z"/><path fill="#111107" d="M977.18 650.308s-29.436-9.065-40.895-3.105c0 0 19.343 13.68 30.204 13.921 7.469.165 10.69-10.816 10.69-10.816ZM956.949 799.6s-2.815 2.548-8.547 2.934c-2.314.156 1.823 1.08 4.172.868 1.143-.103 4.044-2.414 4.044-2.414Z"/><path fill="#639bff" d="M965.966 437.448a196.084 196.084 0 0 1-13.015-15.646s-6.866 3.997-22.248 26.493c-6.09 8.905-24.705 26.652-23.847 32.449 1.355 9.161 21.716 19.853 26.414 20.292 3.793.355 7.648-2.607 10.11-7 16.43-29.318 28.497-50.287 22.586-56.588Z"/><path fill="#ffd7cf" d="M970.618 579.146c9.124-18.194 44.963-28.137 57.244-22.963 14.6 6.15 8.572 47.369 6.332 63.052-3.167 22.176-29.24 50.98-25.373 83.742 6.56 55.575-15.453 106.301-15.453 106.301l-6.116-.694s-4.339-54.032-21.025-121.854c-10.671-43.375-5.38-88.099 4.391-107.584Z"/><path fill="url(#g)" d="M1049.302 561.331a183.017 183.017 0 0 0-12.093-32.537 179.192 179.192 0 0 0-8.843-16.01c-3.362-5.439-7.2-11.025-6.05-17.72.29-1.683-1.434-3.049-2.909-3.195-6.595-.655-13.153 1.85-19.528 3.233a120.143 120.143 0 0 1-21.834 3.025c-12.885.384-25.784-2.381-36.09-10.447-1.714-1.341-3.856-.006-4.578 1.639-5.231 11.913-13.185 22.29-20.066 33.253a140.623 140.623 0 0 0-15.728 34.641c-7.314 24.539-8.495 50.464-7.322 75.898.11 2.413 28.95 14.24 39.434 16.112 9.91 1.77 30.23 1.582 40.261.733 20.404-1.728 80.305-11.237 82.888-22.712 5.227-23.219-1.389-42.918-7.542-65.913Z"/><path fill="#0b4fb2" d="M995.01 805.155s-.87.986-3.896 1.333a5.998 5.998 0 0 1-4.117-.738s-2.645 9.077-5.735 14.058c-2.078 3.35-4.896 7.363-2.774 7.917a11.745 11.745 0 0 0 8.55-1.89c3.845-2.586 5.061-9.302 6.39-7.912.77.803-.197 2.22 1.304 1.516 1.028-.482 2.067-3.717 2.133-6.063a16.258 16.258 0 0 0-1.856-8.221Z"/><path fill="#ffd7cf" d="M1014.572 422.95c-16.8-12.635-49.411-13.727-59.684 4.557-3.714 6.61 3.007 22.83 9.354 27.381 8.668 6.215 21.277 6.226 31.917 3.86 10.468-2.33 20.818-7.08 27.197-14.403 7.27-8.347-.995-15.539-8.784-21.396Z"/><path fill="#111107" d="M922.615 337.68c4.728 6.997 11.861 11.196 18.843 15.737 2.444 1.59 4.764 3.114 4.845 4.49.222 3.752-1.812 7.828-2.213 11.547-.953 8.813.673 19.499 10.5 24.328 4.534 2.227 9.616 2.444 13.735 4.602 6.756 3.54 5.553 3.802 8.932 7.77 6.617 7.768 16.043 7.34 20.809.035.843-1.292 2.458-3.562 3.48-1.41 2.027 4.278 13.013-1.377 9.884-7.024-1.843-3.327 1.796-1.01 5.695-.74 8.237.572 16.626 1.664 24.115-1.415 6.953-2.858 12.353-8.87 12.97-16.498.66-8.166-5.162-17.16-12.002-22.498a25.5 25.5 0 0 0-11.012-4.803c-.586-.116 3.141-10.732-1.51-20.604-3.524-7.48-19.42 3.87-27.65-9.005-2.503-3.918-5.122-8.032-9.064-10.842-6.874-4.9-14.784-5.08-21.731-2.26-2.324.944-5.269 3.258-7.933 3.327-2.04.052-3.317-1.354-5.017-2.787-6.208-5.232-12.545-10.118-20.804-9.244-18 1.906-24.804 22.593-14.872 37.293Z"/><path fill="#111107" d="M1018.967 399.663c-8.67 1.842-6.305-3.469-10.206-3.628-3.477-.141-6.612 2.018-7.543 4.14-2.048 4.671 4.424 12.07 12.894 6.543 4.72-3.079 12.346.983 12.673-1.821.2-1.71-2.388-6.387-7.818-5.233Z"/><path fill="#111107" d="M1019.752 409.492c1.564-.189 1.111.558 2.566.951a3.174 3.174 0 0 0 3.193-.914c1.17-1.583-.515-3.804-4.176-2.447-2.039.756-3.781-1.125-4.456-.27-.852 1.079.14 3.01 2.873 2.68Z"/><path fill="#f4c0b8" d="M974.006 386.676c.503-1.512 2.31-1.548 3.945-.367 1.345.972 1.137 6.821-1.149 6.61-2.403-.221-3.663-3.634-2.796-6.243Z"/><path fill="#ffd7cf" d="M980.306 420.93c-.604-7.58-.43-19.451 1.486-22.23 2.71-3.93 15.048-3.692 14.379 1.836-.489 4.034-1.161 18.365-1.535 21.388-.525 4.247-13.895 4.472-14.33-.994Z"/><path fill="#f4c0b8" d="m996.15 400.706-.376 4.326c-2.083 4.709-5.108 8.53-8.587 7.748a9.041 9.041 0 0 1-6.985-6.4l.495-5.506Z"/><path fill="#111107" d="M996.702 397.254v4.202c-2.083 4.708-5 7.674-10.002 7.228-3.883-.346-5.577-3.082-6.703-6.327l1.252-4.935Z"/><path fill="#ffd7cf" d="M979.371 371.846c2.996-3.415 13.035-7.44 18.593-.277 4.573 5.892 4.237 14.425 2.974 20.79-1.355 6.828-5.56 15.538-13.713 14.785-8.57-.791-10.523-8.093-11-14.598-.545-7.459-1.71-15.163 3.146-20.7Z"/><path fill="#ff9eab" d="M987.746 387.454c.401-1.367 2.914 5.375.642 6.552-.836.434-3.242-.028-3.156-.967.119-1.279 1.115-.823 2.514-5.585Z"/><path fill="#f4c0b8" d="M999.32 388.66c.866-2.28 2.793-3.183 4.134-1.695 1.11 1.234-.639 7.196-2.935 7.205-1.487.006-2.175-2.94-1.199-5.51Z"/><path fill="#111107" d="M975.061 365.486c6.737-2.654 12.322 3.14 5.928 10.966-3.578 4.378-3.217 8.58-6.117 9.785-5.53 2.297-11.528-16.135.19-20.751Z"/><path fill="#111107" d="M1011.055 382.199c-5.964-3.914.26-8.843-3.363-14.155-3.17-4.648-7.284-5.206-9.554-10.25-2.278-5.063-5.994-.644-14.334-2.397-7.948-1.67-12.287 8.431-6.46 18.351a16.722 16.722 0 0 0 15.222 8.663c6.377-.252 6.592 5.661 11.254 6.493 7.44 1.327 13.702-3.427 13.702-3.427a24.748 24.748 0 0 1-6.467-3.278Z"/><path fill="#639bff" d="M1034.327 434.766c-2.242-7.241-15.112-13.949-23.912-16.165-2.262-.57-4.942 4.46-7.143 7.513-8.974 12.45-38.179 21.061-37.109-8.798.23-6.403-29.332 9.618-27.051 33.57 1.49 15.65 2.78 14.14-3.038 31.974-1.952 5.986 9.25 21.042 51.554 21.06 19.127.007 38.041-6.498 39.01-13.25 1.354-9.441 2.119-18.9 3.886-28.298 1.736-9.231 5.36-22.576 3.803-27.606Z"/><path fill="#111107" d="M1020.609 429.58c-7.59 2.047-8.676 12.174-7.347 19.915 2.278 13.274 11.975 28.95 11.975 28.95l3.196-13.466Z"/><path fill="#0b4fb2" d="M956.618 800.989a8.671 8.671 0 0 1-4.67 1.725 12.567 12.567 0 0 1-4.548-.42s-1.365 7.09-4.978 12.217c-2.931 4.162-4.366 4.421-5.244 7.248-.778 2.502 5.933 1.617 9.63.03 5.202-2.232 2.22-8.588 7.91-9.264.102 2.612.16 2.444 1.819 2.444 1.31 0 1.847-3.198 1.93-5.543a20.351 20.351 0 0 0-1.849-8.438Z"/><path fill="#111107" d="M989.541 398.087s-1.67 2.317-3.392.208a4.565 4.565 0 0 1 1.099-.776c.153-.02.545.296.545.296s.392-.707.63-.722c.374-.023 1.118.993 1.118.993ZM985.235 384.688c.375-.329-1.427-1.303-2.694-1.008a2.366 2.366 0 0 0-1.336 1.163 2.273 2.273 0 0 1 2.293-.34c.76.312 1.507.385 1.737.185ZM991.062 384.688c-.376-.329 1.426-1.303 2.694-1.008a2.366 2.366 0 0 1 1.335 1.163 2.273 2.273 0 0 0-2.292-.34c-.76.312-1.508.385-1.737.185ZM983.11 386.621a.786.786 0 1 1 1.563.161c-.044.432-.35.554-.781.51s-.827-.239-.782-.67ZM991.782 386.755a.786.786 0 0 1 1.569-.107c.029.433-.352.623-.785.652s-.754-.112-.784-.545Z"/><path fill="#004cf3" d="M1000.045 392.904a.639.639 0 0 1 1.275-.087c.024.352-.286.505-.638.53s-.613-.091-.637-.443Z"/><path fill="#fff" d="M988.554 379.168c-.153-.057-15.25-5.832-11.156-19.153l.956.294c-3.815 12.415 9.96 17.702 10.548 17.921ZM1009.468 385.75c-.05-.078-5.128-7.816-11.552-11.423a42.84 42.84 0 0 0-7.354-3.185c-3.298-1.158-5.681-1.995-7.206-5.067l.896-.444c1.344 2.707 3.452 3.447 6.642 4.567a44.311 44.311 0 0 1 7.51 3.257c6.644 3.73 11.691 11.424 11.903 11.75Z"/><path d="M979.215 442.34a15.8 15.8 0 0 1-7.174-1.57c-5.486-2.763-8.568-9.135-9.159-18.938l.998-.06c.568 9.421 3.465 15.513 8.611 18.105 10.167 5.12 25.944-5.021 26.102-5.124l.546.837c-.526.343-10.496 6.75-19.924 6.75ZM954.322 529.16l-.993-.117a109.744 109.744 0 0 1 6.553-25.285l.924.383a108.592 108.592 0 0 0-6.484 25.019ZM970.88 709c-.048-.21-4.897-21.204-9.127-41.754l.98-.2c4.227 20.537 9.073 41.518 9.122 41.728ZM984.521 504.422c-11.984 0-27.997-1.478-38.702-8.216l.533-.846c18.662 11.747 53.944 7.216 54.298 7.17l.132.99a139.226 139.226 0 0 1-16.26.902ZM918.7 490.023c-.35-.466-8.568-11.54-8.568-22.855h1c0 10.983 8.283 22.143 8.367 22.254ZM940.434 480.29l-.962-.275a57.922 57.922 0 0 0 1.959-15.468 52.916 52.916 0 0 0-.818-7.03c-.79-4.79-1.536-9.316.861-17.446l.96.283c-2.333 7.91-1.605 12.326-.834 17.001a53.701 53.701 0 0 1 .83 7.156 59.029 59.029 0 0 1-1.996 15.779Z"/><path fill="#ffd011" d="M703.231 452.964h349.282v35.869H703.231z" transform="rotate(20.249 877.871 470.898)"/><path d="M733.429 416.798h1v2h-1z" transform="rotate(-69.762 733.929 417.798)"/><path d="m949.782 497.96-3.708-1.368.345-.939 3.709 1.368Zm-7.417-2.737-3.708-1.367.345-.939 3.709 1.368Zm-7.416-2.736-3.709-1.368.346-.938 3.708 1.368Zm-7.417-2.736-3.709-1.367.346-.939 3.708 1.368Zm-7.417-2.736-3.708-1.368.345-.938 3.708 1.368Zm-7.417-2.736-3.708-1.368.345-.938 3.709 1.367Zm-7.417-2.736-3.708-1.368.345-.939 3.709 1.369Zm-7.417-2.736-3.708-1.368.346-.938 3.708 1.367Zm-7.416-2.736-3.709-1.368.346-.939 3.708 1.368Zm-7.417-2.736-3.709-1.368.346-.939 3.708 1.368Zm-7.417-2.736-3.708-1.368.345-.939 3.709 1.368Zm-7.417-2.737-3.708-1.367.345-.939 3.709 1.368Zm-7.417-2.735-3.708-1.369.345-.938 3.709 1.368Zm-7.416-2.737-3.709-1.367.346-.939 3.708 1.368Zm-7.417-2.736-3.709-1.368.346-.938 3.708 1.368Zm-7.417-2.736-3.708-1.368.345-.938 3.708 1.368Zm-7.417-2.736-3.708-1.368.345-.938 3.709 1.368Zm-7.417-2.736-3.708-1.368.345-.938 3.709 1.367Zm-7.417-2.736-3.708-1.368.346-.939 3.708 1.369Zm-7.416-2.736-3.709-1.368.346-.938 3.708 1.367Zm-7.417-2.736-3.709-1.368.346-.939 3.708 1.368Zm-7.417-2.736-3.708-1.368.345-.939 3.708 1.368Zm-7.417-2.736-3.708-1.368.345-.939 3.709 1.368Zm-7.417-2.737-3.708-1.367.345-.939 3.709 1.368Zm-7.417-2.735-3.708-1.369.346-.938 3.708 1.368Zm-7.416-2.737-3.709-1.367.346-.939 3.708 1.368Zm-7.417-2.736-3.709-1.368.346-.938 3.708 1.368Zm-7.417-2.736-3.708-1.368.345-.938 3.708 1.368Zm-7.417-2.736-3.708-1.368.345-.938 3.709 1.368Z"/><path d="M954.102 498.204h1v2h-1z" transform="rotate(-69.747 954.602 499.204)"/><path fill="#fff" d="M983.247 508.15h54.08v23.193h-54.08z" transform="rotate(20.249 1010.287 519.747)"/><path fill="#ffd7cf" d="M992.26 529.752s55.64 4.1 65.634-24.91c6.336-18.393-3.016-30.79-7.345-41.297-3.776-9.167-26.144-14.998-24.604-2.043 1.86 15.655 4.927 21.98.716 37.373-2.208 8.07-32.695 18.981-32.695 18.981Z"/><path fill="#ffd7cf" d="M992.26 529.752s-9.084 2.892-18.317.302c-.777-.218-7.28-2.307-9.528-4.353-1.848-1.682-2.296-5.855.32-5.237 10.295 2.434 14.305-.728 14.305-.728s-4.135-1.094-5.812-2.655c-.656-.61.569-1.186 3.264-1.261 2.166-.06 5.741-.754 7.73-.618 3.53.24 9.744 2.654 9.744 2.654Z"/><path fill="#639bff" d="M1031.716 430.4c-9.035-4.663-13.581.168-14.914 3.776-3.002 8.126-1.402 14.082 6.023 34.121 3.748 10.116-.517 26.705 2.23 31.882 4.34 8.181 27.104 11.45 31.68 10.293 3.692-.934 6.335-5.014 7.186-9.976 5.684-33.125-24.527-66.135-32.206-70.097Z"/><path d="M1050.011 503.104c-.582-.014-14.367-.436-23.243-7.452l.62-.784c8.617 6.81 22.509 7.233 22.648 7.236Z"/><path fill="#ffd011" d="M195.115 895.214s-2.58 12.125-2.048 15.561c1.016 6.553 5.055 8.195 9.3 14.262 1.33 1.902-.709 4.07-3.61 2.954-10.323-3.968-18.384-8.761-19.236-12.56-1.145-5.106-.191-20.217-.191-20.217ZM229.971 892.175s.981 14.273 2.406 17.805c1.437 3.562 10.978 6.862 15.761 9.438 6.69 3.602 9.354 1.634 8.336-.412-1.418-2.851-7.49-8.51-9.057-12.421a44.804 44.804 0 0 1-3.243-15.44Z"/><path fill="url(#h)" d="M299.384 477.418c3.28-7.41-2.12-44.21-20.351-42.655-8.904.76-15.823 3.846-19.569 1.272-7.787-5.35-2.554-19.372-26.747-25.018-7.902-1.845-16.576 2.756-24.316 16.203-15.074 26.193-23.097 10.871-50.297 15.103-12.408 1.93-27.619 9.495-31.74 26.762-4.672 19.57 12.721 35.505 24.643 40.321 17.256 6.972 20.882 16.738 13.794 40.077-11.562 38.066 76.052 18.259 95.24 5.497 11.535-7.672 4.496-20.41 16.205-26.208 18.722-9.269 21.524 2.526 34.711-3.385 20.178-9.044.036-35.986-11.573-47.97Z"/><path fill="url(#d)" d="M249.763 520.578c-11.525-9.896-43.472-4.406-45.275-3.941-12.122 3.123-19.933 10.415-21.972 24.183-2.717 18.346-6.34 75.185 7.778 83.866 18.86 11.596 68.576-9.839 76.345-28.304 5.92-14.072-3.794-64.57-16.876-75.803Z"/><path fill="#111107" d="M235.577 517.302c-3.218-1.248-13.67-.885-14.165-.767-5.617 1.345-5.617 6.463-1.504 9.004 6.145 3.797 13.46 2.112 16.74.268 3.353-1.884 3.416-6.764-1.07-8.505Z"/><path fill="#f4c0b8" d="M245.52 482.27c-.486-1.7-2.417-1.813-4.204-.565-1.47 1.027-.99 6.348 1.46 6.205 2.576-.15 3.584-2.703 2.745-5.64Z"/><path fill="#ffd7cf" d="M236.165 519.64c-.69-10.948 1.16-20.775-.787-23.814-2.755-4.298-15.95-4.488-15.435 1.444.377 4.33-1.029 20.367.676 25.692 1.395 4.357 15.915 2.53 15.546-3.322Z"/><path fill="#f4c0b8" d="m219.959 497.453.027 4.081c2.057 5.108 5.371 9.858 9.118 9.147 4.097-.777 5.801-2.341 7.122-5.77l.244-6.722Z"/><path fill="#111107" d="m219.727 493.43.17 7.42c2.024 2.766 4.739 6.13 10.13 5.258a8.267 8.267 0 0 0 6.551-5.177l-.34-6.764Z"/><path fill="#ffd7cf" d="M238.933 467.21c-3.08-3.757-13.664-8.42-19.863-.966-5.1 6.133-5.048 15.266-3.927 22.114 1.202 7.347 5.382 16.808 14.123 16.297 9.189-.537 11.54-8.27 12.283-15.206.853-7.952 2.376-16.145-2.616-22.238Z"/><path fill="#ff9eab" d="M230.35 483.95c1.323 5.14 2.81 4.089 2.891 5.46.059 1.006-2.48 2.1-3.357 1.607-2.386-1.341.085-8.542.465-7.066Z"/><path fill="#f4c0b8" d="M216.324 482.994c-.884-3.005-3.474-4.413-5.594-2.714-1.755 1.407-.33 8.2 2.917 8.528 2.104.213 3.674-2.426 2.677-5.814Z"/><path fill="url(#i)" d="M246.307 463.51c-4.3-9.688-16.688-2.962-10.136 5.632 1.81 2.376 2.894 1.487 3.236 6.589.381 5.703 2.604 8.245 4.127 9 4.977 2.468 10.021-3.06 5.497-7.972-2.947-3.2-.941-9.232-2.724-13.248Z"/><path fill="url(#j)" d="M207.702 476.347c-1.828-5.265-3.084-10.576 2.103-12.767 7.604-3.212 1.7-8.415 9.322-9.004 8.238-.635 10.545 6.362 17.429 3.967 2.552-.888 4.215.304 1.717 3.47-2.916 3.696-1.846 15.282-11.36 18.006-3.255.931-8.726.414-10.374.586-5.005.523-2.801 4.954-6.298 5.456-4 .574-6.065-3.98-2.539-9.714Z"/><path fill="#ffd7cf" d="M353.687 561.313a49.562 49.562 0 0 0 19.458-13.316c.505-.554.89-5.028 2.297-6.877 4.51-5.927 2.153-7.964 1.84-7.839-5.29 2.107-9.295 4.018-14.22 5.777 1.265-1.577 3.344-2.915 3.276-5.248-.027-.913-2.603.062-3.828 1.289-.984.985-7.12 4.315-8.707 6.196-2.814 3.335-3.118 5.761-5.69 9.43 2.847 2.721 2.862 7.74 5.574 10.588Z"/><path fill="url(#k)" d="M252.779 521.015c8.54 12.492 9.406 22.028 34.673 38.164 17.713 11.313 50.993 1.8 60.049-14.999 6.239 2.18 12.267 10.174 17.625 13.503-10.805 23.808-43.113 43.821-63.619 46.053-33.273 3.622-65.118-14.68-73.96-41.82-2.071-6.355 27.77-37.19 25.232-40.901Z"/><path fill="#ffd011" d="M242.494 584.918c10.47-7.98 24.355-19.45 26.47-40.202-2.918-2.837-5.715-7.904-8.771-11.44-2.062 12.05-11.125 33.31-26.285 41.275a44.475 44.475 0 0 0 8.587 10.367ZM261.053 597.268c13.832-3.283 24.907-23.333 26.399-38.089a104.476 104.476 0 0 1-10.32-7.229c-3.313 12.4-15.504 32.867-26.502 39.467ZM303.556 603.442c1.58-10.829 1.848-29.098-.963-39.516-2.137-.637-6.708-.064-8.295-1.597-1.872 10.94-7.952 30.387-10.267 41.326 4.003 1.553 15.293.07 19.525-.213ZM333.97 588.346s-5.066-17.88-8.386-27.63a78.23 78.23 0 0 1-8.652 2.368c1.475 10.211 5.165 19.968 5.945 32.541ZM356.863 565.912s-11.418-9.601-14.328-15.334a48.667 48.667 0 0 1-6.969 5.366c4.744 5.77 8.96 11.239 14.286 18.198 0 0 7.343-7.257 7.01-8.23Z"/><path fill="#111107" d="M178.1 594.99s11.892-4.41 18.254-19.785c9.04-21.85 2.345-57.613 2.345-57.613l11.491-2.89s10.934 46.928 30.894 46.014c16.924-.775 4.133-44.706 4.133-44.706a15.81 15.81 0 0 1 7.51 5.81c7.233 11.234 7.346 30.226 10.279 52.137 1.611 12.041 7.235 16.591 7.235 16.591s9.073 60.133-7.614 149.715c-14.256 76.531-13.515 166.435-13.515 166.435l-19.615-.297s-15.245-33.882-13.358-104.32c.522-19.482 3.136-38.988 3.136-38.988s3.762 17.887-6.248 52.901c-7.678 26.855-17.652 95.471-17.652 95.471H176.45c-7.803-84.402.37-89.043 1.037-150.852 1.47-136.436.613-165.623.613-165.623ZM230.29 495.563c-.456.418-2.188-.188-2.107-1.526 0 0 2.932.77 2.107 1.526ZM232.404 480.001c-.39-.364 1.572-1.34 2.916-.979a2.53 2.53 0 0 1 1.385 1.29 4.214 4.214 0 0 0-2.17-.352c-.876.07-1.893.264-2.131.041ZM234.887 482.326a.84.84 0 1 0-1.677.115c.032.463.354.605.817.573s.891-.225.86-.688ZM225.569 482.812a.84.84 0 0 0-1.678.106c.03.463.46.61.923.581s.784-.224.755-.687Z"/><path fill="#fff" d="m239.694 598.432-.13-.99c10.168-1.326 14.186-7.753 15.766-12.913 2.112-6.897.63-13.795-.848-15.103-.26-.23-.394-.17-.45-.145-13.828 6.18-21.265 5.303-25.71 4.78-1.952-.229-3.242-.381-4.237.122a3.148 3.148 0 0 0-.317 1.51c-.2 3.231 1.005 11.034 4.812 15.289l-.745.667c-4.18-4.67-5.58-13.655-4.951-16.99a1.785 1.785 0 0 1 .75-1.368c1.265-.639 2.75-.464 4.805-.223 4.342.51 11.608 1.367 25.185-4.7a1.358 1.358 0 0 1 1.52.309c1.929 1.704 3.258 9.235 1.142 16.145-1.666 5.44-5.897 12.217-16.592 13.61Z"/><path fill="#fff" d="M232.52 578.676a22.437 22.437 0 0 1-6.213-.73l.289-.957c5.173 1.56 18.558 1.03 32.442-7.041l.502.864c-10.229 5.946-20.24 7.864-27.02 7.864ZM183.86 678.767l-.37-.929c15.614-6.211 13.77-31.145 13.749-31.396l.997-.081c.02.258 1.917 25.924-14.376 32.406ZM216.621 802.213l-.965-.264c18.183-66.273 21.736-84.942 21.77-85.124l.983.184c-.034.181-3.588 18.869-21.788 85.204Z"/><path d="M222.32 481.165a9.705 9.705 0 0 1-1.895-.162l.21-.978a11.898 11.898 0 0 0 8.244-1.82c3.62-2.372 6.098-6.713 7.365-12.902l.98.2c-1.325 6.47-3.954 11.03-7.815 13.55a12.964 12.964 0 0 1-7.088 2.112Z"/><path d="M221.234 475.985a6.94 6.94 0 0 1-1.337-.113l.207-.979a8.05 8.05 0 0 0 4.38-.58c3.095-1.335 5.17-4.448 6.166-9.252l.98.203c-.911 4.39-2.722 7.495-5.382 9.232a9.17 9.17 0 0 1-5.014 1.489Z"/><path fill="#639bff" d="m268.84 694.435 151.052 9.297a21.188 21.188 0 0 0 22.45-19.847l16.607-269.831a21.189 21.189 0 0 0-19.847-22.45l-151.053-9.297a21.188 21.188 0 0 0-22.45 19.847l-16.606 269.831a21.189 21.189 0 0 0 19.846 22.45Z"/><path d="M265.277 386.91h193.715v25.73a21.188 21.188 0 0 1-21.188 21.189H286.465a21.189 21.189 0 0 1-21.188-21.189v-25.729Z" transform="rotate(-176.478 362.135 410.37)"/><circle cx="412.614" cy="488.305" r="22.46" fill="#fff" transform="rotate(-41.478 412.614 488.305)"/><path d="M325.389 429.51h1v90.842h-1z" transform="rotate(-86.478 325.89 474.931)"/><path fill="#fff" d="M323.365 380.157h1V482.88h-1z" transform="rotate(-86.478 323.865 431.518)"/><path fill="#fff" d="M402.927 417.238h1v38.352h-1z" transform="rotate(-86.478 403.427 436.414)"/><path d="M368.741 492.672h1v2h-1z" transform="rotate(-86.472 369.24 493.673)"/><path d="m364.248 493.866-3.963-.244.061-.998 3.964.244Zm-7.927-.487-3.964-.245.062-.998 3.963.245Zm-7.928-.489-3.963-.243.061-.998 3.964.243Zm-7.927-.487-3.964-.244.061-.998 3.964.244Zm-7.927-.488-3.964-.244.061-.998 3.964.244Zm-7.928-.488-3.964-.244.061-.998 3.964.244Zm-7.928-.488-3.963-.244.061-.998 3.964.244Z"/><path d="M307.288 488.89h1v2h-1z" transform="rotate(-86.474 307.788 489.89)"/><circle cx="407.874" cy="565.319" r="22.46" fill="#fff" transform="rotate(-6.51 407.875 565.32)"/><path d="M320.65 506.524h1v90.842h-1z" transform="rotate(-86.478 321.15 551.945)"/><path d="M340.43 544.62h1v49.231h-1z" transform="rotate(-86.478 340.93 569.235)"/><circle cx="403.135" cy="642.333" r="22.46" fill="#fff" transform="rotate(-6.51 403.135 642.333)"/><path d="M279.332 617.934h1v17.547h-1z" transform="rotate(-86.477 279.832 626.708)"/><path d="M326.969 595.298h1v68.683h-1z" transform="rotate(-86.478 327.468 629.64)"/><path d="M342.896 629.297h1v34.792h-1z" transform="rotate(-86.478 343.396 646.693)"/><path fill="#ffd7cf" d="M296.189 608.035a48.477 48.477 0 0 0 21.75-9.626c.605-.463 1.85-4.97 3.594-6.574 5.59-5.143 3.66-7.72 3.327-7.657-5.62 1.066-9.936 2.197-15.13 2.981 1.55-1.355 3.859-2.296 4.242-4.703.15-.941-2.576-.474-4.02.53-1.16.806-7.853 2.95-9.78 4.55-3.417 2.837-4.186 5.262-7.431 8.49 2.28 3.38 1.325 8.527 3.448 12.01Z"/><path fill="url(#l)" d="M202.952 533.276c8.42 26.222 6.366 29.363 25.832 53.945 13.647 17.233 48.872 19.77 62.884 6.677 5.37 4.319 9.126 6.646 13.283 11.768-17.891 19.275-55.85 34.824-76.423 29.741-33.384-8.248-55.94-34.541-54.486-64.072 2.48-50.32 21.793-60.229 28.91-38.06Z"/><path fill="#ffd011" d="M179.663 598.348c12.635-4.04 27.625-9.971 36.14-29.352-1.944-3.783-5.76-13.908-7.621-18.418-5.753 10.96-16.88 25.106-34.057 27.473.456 1.182 1.373 12.817 5.538 20.297ZM191.327 614.834c14.431 1.704 31.414-13.828 37.457-27.613a113.863 113.863 0 0 1-7.753-10.66c-7.074 10.857-24.638 26.265-37.356 28.779ZM230.606 635.845c4.904-9.945 10.857-27.57 11.377-38.668-1.873-1.373-6.483-2.433-7.544-4.482-5.222 9.95-17.175 26.664-22.827 36.456 3.397 2.922 14.803 5.473 18.994 6.694ZM265.826 630.412s-.375-17.591-.555-28.223a79.23 79.23 0 0 1-9.126-.76c-1.75 10.425-1.868 20.884-5.03 33.356ZM293.57 615.605s-7.674-10.668-8.71-17.257a47.398 47.398 0 0 1-8.426 2.74c2.8 7.276 3.924 12.459 6.92 21.09a116.83 116.83 0 0 0 10.215-6.573Z"/></svg>