<?xml version="1.0" standalone="no"?>
<!DOCTYPE svg PUBLIC "-//W3C//DTD SVG 20010904//EN"
 "http://www.w3.org/TR/2001/REC-SVG-20010904/DTD/svg10.dtd">
<svg version="1.0" xmlns="http://www.w3.org/2000/svg"
 width="218.000000pt" height="266.000000pt" viewBox="0 0 218.000000 266.000000"
 preserveAspectRatio="xMidYMid meet">

<g transform="translate(0.000000,266.000000) scale(0.100000,-0.100000)"
fill="#000000" stroke="none">
<path d="M678 2575 c-36 -13 -218 -131 -218 -141 0 -2 26 13 58 34 130 88 171
105 249 106 64 0 77 -3 115 -30 70 -49 77 -121 18 -188 -17 -18 -30 -37 -30
-41 0 -5 12 -24 26 -42 24 -32 30 -34 73 -31 l46 3 0 -80 0 -80 -40 -3 c-62
-5 -99 6 -140 41 -27 24 -39 43 -44 72 -6 36 -9 40 -43 46 -71 11 -138 83
-138 148 l0 31 -72 -56 c-95 -73 -242 -160 -297 -174 -49 -13 -114 -5 -131 15
-9 11 -2 18 34 34 65 28 57 34 -14 8 l-59 -22 20 -21 c11 -12 41 -27 67 -34
26 -6 76 -22 112 -35 106 -38 288 -79 335 -75 11 0 31 2 45 3 20 2 29 -7 50
-47 14 -27 36 -57 49 -67 19 -16 21 -24 15 -64 -10 -72 10 -127 77 -200 31
-35 59 -61 62 -58 7 6 61 -22 81 -43 15 -15 15 -18 -4 -49 -46 -74 -15 -152
80 -207 155 -90 208 -129 234 -178 45 -82 31 -199 -31 -256 -32 -29 -62 -30
-97 -3 -31 25 -32 37 -6 86 43 81 22 115 -122 200 -98 58 -156 113 -187 176
-19 40 -23 60 -19 117 2 38 0 64 -4 57 -4 -7 -8 -49 -8 -95 0 -89 14 -129 66
-192 23 -27 26 -35 16 -51 -11 -18 -11 -18 7 -7 21 13 41 6 91 -32 23 -17 24
-21 12 -52 -22 -62 -16 -97 25 -135 20 -19 54 -46 75 -59 100 -64 148 -129
148 -204 0 -62 -74 -149 -114 -134 -17 6 -18 15 -12 81 5 69 4 76 -18 98 -13
13 -49 38 -81 56 -142 80 -207 212 -161 324 19 44 12 45 -14 3 -15 -26 -20
-51 -20 -112 0 -70 3 -83 29 -121 56 -83 75 -105 90 -105 34 -1 59 -34 64 -85
5 -52 3 -49 145 -177 47 -43 65 -92 51 -140 -20 -71 -63 -90 -52 -23 12 72
-10 103 -109 158 -108 60 -161 141 -141 216 4 17 3 22 -5 17 -30 -18 -1 -166
39 -202 10 -9 19 -23 19 -31 0 -7 11 -13 25 -13 33 0 41 -22 19 -54 -9 -15
-18 -48 -19 -74 -3 -61 -3 -60 -21 -34 -9 13 -20 44 -25 70 l-8 47 4 -54 c2
-29 11 -64 20 -78 14 -21 62 -57 88 -66 5 -1 12 -36 15 -77 10 -111 39 -89 41
31 1 56 1 57 34 63 34 6 65 33 86 73 16 31 14 116 -4 139 -21 27 -19 41 14 82
55 71 64 160 20 216 -27 35 -24 47 22 91 52 50 69 90 69 159 0 67 -10 93 -49
138 l-30 35 30 29 c50 47 80 108 86 173 7 71 -7 115 -53 176 -39 50 -39 53 18
105 33 31 68 112 68 157 0 38 6 50 45 92 25 26 45 53 45 58 0 24 33 34 141 44
63 6 129 17 148 25 18 8 53 14 77 14 23 0 45 4 48 9 3 4 33 14 66 20 47 9 69
20 100 50 48 45 50 61 11 61 -17 0 -64 18 -106 39 -73 38 -128 74 -339 221
-106 73 -190 105 -256 97 -34 -4 -34 -4 6 -5 81 -4 145 -37 364 -190 112 -78
248 -156 292 -167 73 -18 19 -71 -64 -62 -100 12 -279 121 -363 221 l-35 41 0
-40 c0 -81 -71 -145 -160 -145 -37 0 -40 -2 -35 -23 8 -31 -31 -88 -78 -110
-36 -18 -126 -25 -147 -12 -6 3 -10 40 -10 81 l0 76 29 -7 c38 -8 92 15 109
47 13 23 11 29 -18 71 -25 34 -33 56 -33 89 0 38 -1 40 -9 18 -14 -37 -3 -108
21 -141 12 -15 21 -35 21 -42 0 -28 -104 -38 -114 -11 -11 29 -5 129 9 154 8
14 14 42 15 63 1 102 -135 132 -194 43 -20 -31 -20 -61 -1 -116 8 -23 15 -66
15 -95 0 -49 -2 -53 -29 -65 -31 -12 -56 -5 -81 25 -10 13 -8 22 16 58 55 80
30 181 -56 225 -51 25 -133 29 -192 7z m477 -28 c54 -46 28 -140 -41 -153 -42
-8 -80 15 -102 60 -42 84 70 156 143 93z m-13 -239 c4 -86 -13 -561 -21 -570
-11 -11 -61 4 -70 21 -5 9 -13 150 -17 314 l-7 297 56 0 55 0 4 -62z m-548 4
c11 -38 12 -36 -120 -118 -90 -56 -137 -70 -178 -54 -35 13 -33 23 12 44 45
22 120 72 187 125 60 48 86 49 99 3z m1100 -19 c25 -21 84 -63 130 -93 93 -60
106 -86 44 -84 -83 3 -258 130 -258 188 0 38 29 34 84 -11z m-1052 -40 c10 -9
18 -22 18 -30 0 -10 5 -11 19 -3 25 13 71 -3 71 -24 0 -17 -27 -45 -84 -87
-37 -28 -93 -39 -110 -22 -3 4 17 32 46 62 l53 54 -51 -35 c-77 -54 -109 -68
-154 -68 -52 0 -52 18 3 52 23 15 66 47 95 72 59 51 67 53 94 29z m988 -34
c19 -17 61 -48 93 -70 31 -22 57 -44 57 -49 0 -15 -66 -12 -106 5 -41 17 -120
79 -128 102 -8 19 11 43 33 43 9 0 32 -14 51 -31z m-107 -26 c12 -15 40 -46
61 -70 50 -55 39 -74 -25 -46 -45 20 -119 93 -119 116 0 37 52 37 83 0z m-733
-63 c36 -50 98 -80 167 -80 46 0 62 -4 67 -16 10 -27 -2 -33 -57 -29 -51 4
-51 4 -9 -4 24 -4 48 -14 52 -22 13 -21 -11 -52 -54 -68 -31 -12 -41 -12 -64
0 -15 7 -30 15 -34 17 -5 2 -8 -12 -8 -31 0 -68 63 -116 225 -172 128 -44 190
-79 234 -134 43 -55 56 -102 45 -165 -9 -57 -26 -86 -73 -129 -47 -42 -57 -44
-100 -19 -39 22 -45 37 -25 68 10 15 12 24 5 24 -7 0 -11 23 -11 60 0 33 4 60
10 60 17 0 32 -41 28 -77 -4 -31 -3 -33 9 -17 7 10 13 39 13 65 0 60 -12 70
-199 164 -152 77 -203 117 -227 180 -21 55 -13 103 24 147 15 18 19 27 10 20
-15 -12 -22 -11 -47 7 -31 22 -63 63 -74 94 -6 17 45 87 63 87 5 0 18 -13 30
-30z m679 -30 c40 -38 39 -56 -4 -102 -38 -43 -61 -47 -98 -18 -42 33 -41 23
3 -18 34 -33 40 -45 40 -78 0 -78 -80 -194 -145 -210 -28 -7 -105 32 -105 53
0 7 11 18 25 23 32 12 32 19 0 12 -36 -6 -45 25 -14 49 20 15 21 19 7 19 -15
0 -18 9 -18 46 0 25 3 44 8 42 49 -21 112 -64 112 -76 0 -9 -10 -27 -22 -41
-12 -14 -1 -5 25 20 43 44 67 92 53 106 -3 4 -12 1 -18 -5 -7 -7 -33 -12 -58
-12 -63 0 -87 26 -88 96 l-1 50 70 1 c70 1 97 11 143 55 28 25 48 23 85 -12z
m-441 -228 c2 -31 -1 -44 -12 -48 -15 -6 -86 31 -86 44 0 10 73 50 85 48 6 -2
11 -21 13 -44z m-59 -47 c49 -24 74 -55 45 -55 -30 0 -104 51 -104 72 0 12 6
10 59 -17z m129 -291 c20 -14 22 -23 22 -109 0 -52 -4 -96 -9 -99 -5 -3 -19 2
-32 13 -20 16 -23 29 -27 115 -5 104 0 112 46 80z m-60 -93 c3 -68 -7 -76 -35
-30 -21 34 -10 102 15 97 13 -3 18 -16 20 -67z m70 -421 c2 -35 0 -70 -3 -79
-6 -14 -9 -12 -26 8 -15 18 -19 39 -19 93 l0 70 23 -14 c18 -13 23 -26 25 -78z
m-58 9 c0 -10 -4 -19 -10 -19 -5 0 -10 12 -10 26 0 14 4 23 10 19 6 -3 10 -15
10 -26z m110 -19 c0 -22 -16 -35 -25 -20 -9 14 4 52 16 45 5 -4 9 -15 9 -25z
m-62 -349 c2 -40 0 -52 -10 -49 -14 5 -29 74 -21 96 11 28 28 3 31 -47z m-51
27 c-3 -8 -6 -5 -6 6 -1 11 2 17 5 13 3 -3 4 -12 1 -19z m11 -316 c2 -46 -1
-72 -8 -72 -23 0 -40 93 -24 135 14 36 29 6 32 -63z m34 -4 c3 -46 3 -112 -1
-148 l-6 -65 -8 70 c-10 95 -9 225 2 225 4 0 10 -37 13 -82z m54 39 c8 -34 1
-102 -11 -102 -16 0 -28 50 -21 88 8 42 23 48 32 14z"/>
<path d="M1134 2506 c4 -16 -1 -32 -15 -50 l-21 -26 26 12 c27 12 43 47 32 73
-9 25 -29 18 -22 -9z"/>
<path d="M888 2003 c7 -3 16 -2 19 1 4 3 -2 6 -13 5 -11 0 -14 -3 -6 -6z"/>
<path d="M845 1990 c-3 -6 1 -7 9 -4 18 7 21 14 7 14 -6 0 -13 -4 -16 -10z"/>
<path d="M1253 2013 c9 -2 23 -2 30 0 6 3 -1 5 -18 5 -16 0 -22 -2 -12 -5z"/>
<path d="M368 2377 c-118 -80 -117 -79 -88 -66 35 17 159 99 166 110 8 13 6
12 -78 -44z"/>
</g>
</svg>
