<svg xmlns="http://www.w3.org/2000/svg" viewBox="0 0 64 64"><path fill="#343433" d="M40.1 10.4V5.9H24v4.5h16.1z"/><path fill="#343433" d="M56.9 5.9c-1.2-.2-2.4-.1-3.6-.1h-4.7V3.6c0-1.8-1.4-3-3-2.5-1 .3-1.6 1.1-1.7 2v7.5c0 1.1.9 2 2 2.1 1.2.1 2.2-.5 2.6-1.6.1-.3.1-.6.2-1h6.7c1.8 0 2.8 1 2.8 2.8v4.6H5.9v-4.6c0-1.8 1-2.8 2.8-2.8h6.7c0 .3.1.6.2 1 .3 1.1 1.4 1.7 2.6 1.6 1-.1 1.9-1 2-2.1V3.1c0-1-.7-1.8-1.7-2-1.6-.5-3 .7-3 2.5v2.2h-4.7c-1.2 0-2.4-.1-3.6.1-3.6.6-5.9 3.5-5.9 7.2v42.4c0 4.3 3.1 7.4 7.4 7.4h47c4.3 0 7.3-3.1 7.4-7.4V13.2c-.3-3.7-2.6-6.6-6.2-7.3zm1.2 49.6c0 1.8-1 2.8-2.8 2.8H8.7c-1.8 0-2.8-1-2.8-2.8V21.6h52.2v33.9z"/><path fill="#343433" d="M18.8 39.1c-.4 1.1-.1 2.2.7 3l6.6 6.6c.3.3.7.6 1.1.7 1.1.4 2.2.1 3-.8 2-2 4.4-4.3 7.2-7 2.3-2.2 4.9-4.8 7.1-6.9l.2-.2c.8-.9.9-2.3.3-3.4-.5-.8-1.4-1.3-2.4-1.3-.8 0-1.5.3-2 .8-1.8 1.8-4.2 4.1-5.9 5.8l-.3.3c-1.9 1.8-4 3.8-5.8 5.6l-.5.5-4.6-4.7c-.6-.6-1.3-.9-2-.9h-.2c-1.2.2-2.1.8-2.5 1.9z"/></svg>